<mxfile host="app.diagrams.net" modified="2023-11-27T14:47:15.576Z" agent="Mozilla/5.0 (X11; Linux x86_64; rv:109.0) Gecko/20100101 Firefox/115.0" etag="Hvcx3WUx5nQIMHtbtzbA" version="22.1.4" type="device">
  <diagram id="prtHgNgQTEPvFCAcTncT" name="Page-1">
    <mxGraphModel dx="1043" dy="386" grid="1" gridSize="10" guides="1" tooltips="1" connect="1" arrows="1" fold="1" page="1" pageScale="1" pageWidth="827" pageHeight="1169" math="0" shadow="0">
      <root>
        <mxCell id="0" />
        <mxCell id="1" parent="0" />
        <mxCell id="ljBDnQ2L84ngYzarCwvp-2" value="&lt;b&gt;&lt;font style=&quot;font-size: 30px;&quot;&gt;dc&lt;/font&gt;&lt;/b&gt;" style="whiteSpace=wrap;html=1;aspect=fixed;perimeterSpacing=0;rounded=1;fillColor=#dae8fc;strokeColor=#6c8ebf;" parent="1" vertex="1">
          <mxGeometry x="360" y="40" width="60" height="60" as="geometry" />
        </mxCell>
        <mxCell id="ljBDnQ2L84ngYzarCwvp-3" value="dc=capsule,dc=iut" style="text;html=1;strokeColor=none;fillColor=none;align=center;verticalAlign=middle;whiteSpace=wrap;rounded=0;" parent="1" vertex="1">
          <mxGeometry x="315" y="100" width="150" height="30" as="geometry" />
        </mxCell>
        <mxCell id="ljBDnQ2L84ngYzarCwvp-6" value="&lt;font style=&quot;font-size: 10px;&quot;&gt;ou=utilisateurs&lt;/font&gt;" style="text;html=1;strokeColor=none;fillColor=none;align=center;verticalAlign=middle;whiteSpace=wrap;rounded=0;" parent="1" vertex="1">
          <mxGeometry x="13.75" y="319.5" width="150" height="30" as="geometry" />
        </mxCell>
        <mxCell id="ljBDnQ2L84ngYzarCwvp-8" value="&lt;font style=&quot;font-size: 10px;&quot;&gt;ou=groupes&lt;/font&gt;" style="text;html=1;strokeColor=none;fillColor=none;align=center;verticalAlign=middle;whiteSpace=wrap;rounded=0;" parent="1" vertex="1">
          <mxGeometry x="103.75" y="319.5" width="150" height="30" as="geometry" />
        </mxCell>
        <mxCell id="ljBDnQ2L84ngYzarCwvp-10" value="&lt;font size=&quot;1&quot;&gt;&lt;b&gt;&lt;font style=&quot;font-size: 25px;&quot;&gt;dc&lt;/font&gt;&lt;/b&gt;&lt;/font&gt;" style="whiteSpace=wrap;html=1;aspect=fixed;perimeterSpacing=0;rounded=1;fillColor=#dae8fc;strokeColor=#6c8ebf;" parent="1" vertex="1">
          <mxGeometry x="108.5" y="170" width="50.5" height="50.5" as="geometry" />
        </mxCell>
        <mxCell id="ljBDnQ2L84ngYzarCwvp-16" value="dc=public" style="text;html=1;strokeColor=none;fillColor=none;align=center;verticalAlign=middle;whiteSpace=wrap;rounded=0;" parent="1" vertex="1">
          <mxGeometry x="58.75" y="220.5" width="150" height="30" as="geometry" />
        </mxCell>
        <mxCell id="ljBDnQ2L84ngYzarCwvp-17" value="dc=admin" style="text;html=1;strokeColor=none;fillColor=none;align=center;verticalAlign=middle;whiteSpace=wrap;rounded=0;" parent="1" vertex="1">
          <mxGeometry x="228.75" y="220.5" width="150" height="30" as="geometry" />
        </mxCell>
        <mxCell id="ljBDnQ2L84ngYzarCwvp-18" value="dc=info" style="text;html=1;strokeColor=none;fillColor=none;align=center;verticalAlign=middle;whiteSpace=wrap;rounded=0;" parent="1" vertex="1">
          <mxGeometry x="397.5" y="220.5" width="150" height="30" as="geometry" />
        </mxCell>
        <mxCell id="ljBDnQ2L84ngYzarCwvp-19" value="dc=prod" style="text;html=1;strokeColor=none;fillColor=none;align=center;verticalAlign=middle;whiteSpace=wrap;rounded=0;" parent="1" vertex="1">
          <mxGeometry x="569.75" y="220.5" width="150" height="30" as="geometry" />
        </mxCell>
        <mxCell id="ljBDnQ2L84ngYzarCwvp-20" value="&lt;font size=&quot;1&quot;&gt;&lt;b style=&quot;font-size: 20px;&quot;&gt;ou&lt;/b&gt;&lt;/font&gt;" style="whiteSpace=wrap;html=1;aspect=fixed;perimeterSpacing=0;rounded=1;fillColor=#e1d5e7;strokeColor=#9673a6;" parent="1" vertex="1">
          <mxGeometry x="159" y="280" width="39.5" height="39.5" as="geometry" />
        </mxCell>
        <mxCell id="ljBDnQ2L84ngYzarCwvp-26" value="&lt;font size=&quot;1&quot;&gt;&lt;b&gt;&lt;font style=&quot;font-size: 25px;&quot;&gt;dc&lt;/font&gt;&lt;/b&gt;&lt;/font&gt;" style="whiteSpace=wrap;html=1;aspect=fixed;perimeterSpacing=0;rounded=1;fillColor=#dae8fc;strokeColor=#6c8ebf;" parent="1" vertex="1">
          <mxGeometry x="279" y="170" width="50.5" height="50.5" as="geometry" />
        </mxCell>
        <mxCell id="ljBDnQ2L84ngYzarCwvp-27" value="&lt;font size=&quot;1&quot;&gt;&lt;b&gt;&lt;font style=&quot;font-size: 25px;&quot;&gt;dc&lt;/font&gt;&lt;/b&gt;&lt;/font&gt;" style="whiteSpace=wrap;html=1;aspect=fixed;perimeterSpacing=0;rounded=1;fillColor=#dae8fc;strokeColor=#6c8ebf;" parent="1" vertex="1">
          <mxGeometry x="447.25" y="170" width="50.5" height="50.5" as="geometry" />
        </mxCell>
        <mxCell id="ljBDnQ2L84ngYzarCwvp-28" value="&lt;font size=&quot;1&quot;&gt;&lt;b&gt;&lt;font style=&quot;font-size: 25px;&quot;&gt;dc&lt;/font&gt;&lt;/b&gt;&lt;/font&gt;" style="whiteSpace=wrap;html=1;aspect=fixed;perimeterSpacing=0;rounded=1;fillColor=#dae8fc;strokeColor=#6c8ebf;" parent="1" vertex="1">
          <mxGeometry x="619" y="170" width="50.5" height="50.5" as="geometry" />
        </mxCell>
        <mxCell id="ljBDnQ2L84ngYzarCwvp-30" value="&lt;font size=&quot;1&quot;&gt;&lt;b style=&quot;font-size: 20px;&quot;&gt;ou&lt;/b&gt;&lt;/font&gt;" style="whiteSpace=wrap;html=1;aspect=fixed;perimeterSpacing=0;rounded=1;fillColor=#e1d5e7;strokeColor=#9673a6;" parent="1" vertex="1">
          <mxGeometry x="69" y="280" width="39.5" height="39.5" as="geometry" />
        </mxCell>
        <mxCell id="ljBDnQ2L84ngYzarCwvp-31" value="&lt;font size=&quot;1&quot;&gt;&lt;b style=&quot;font-size: 20px;&quot;&gt;ou&lt;/b&gt;&lt;/font&gt;" style="whiteSpace=wrap;html=1;aspect=fixed;perimeterSpacing=0;rounded=1;fillColor=#e1d5e7;strokeColor=#9673a6;" parent="1" vertex="1">
          <mxGeometry x="329.5" y="280" width="39.5" height="39.5" as="geometry" />
        </mxCell>
        <mxCell id="ljBDnQ2L84ngYzarCwvp-32" value="&lt;font size=&quot;1&quot;&gt;&lt;b style=&quot;font-size: 20px;&quot;&gt;ou&lt;/b&gt;&lt;/font&gt;" style="whiteSpace=wrap;html=1;aspect=fixed;perimeterSpacing=0;rounded=1;fillColor=#e1d5e7;strokeColor=#9673a6;" parent="1" vertex="1">
          <mxGeometry x="239.5" y="280" width="39.5" height="39.5" as="geometry" />
        </mxCell>
        <mxCell id="ljBDnQ2L84ngYzarCwvp-33" value="&lt;font size=&quot;1&quot;&gt;&lt;b style=&quot;font-size: 20px;&quot;&gt;ou&lt;/b&gt;&lt;/font&gt;" style="whiteSpace=wrap;html=1;aspect=fixed;perimeterSpacing=0;rounded=1;fillColor=#e1d5e7;strokeColor=#9673a6;" parent="1" vertex="1">
          <mxGeometry x="497.75" y="280" width="39.5" height="39.5" as="geometry" />
        </mxCell>
        <mxCell id="ljBDnQ2L84ngYzarCwvp-34" value="&lt;font size=&quot;1&quot;&gt;&lt;b style=&quot;font-size: 20px;&quot;&gt;ou&lt;/b&gt;&lt;/font&gt;" style="whiteSpace=wrap;html=1;aspect=fixed;perimeterSpacing=0;rounded=1;fillColor=#e1d5e7;strokeColor=#9673a6;" parent="1" vertex="1">
          <mxGeometry x="407.75" y="280" width="39.5" height="39.5" as="geometry" />
        </mxCell>
        <mxCell id="ljBDnQ2L84ngYzarCwvp-35" value="&lt;font size=&quot;1&quot;&gt;&lt;b style=&quot;font-size: 20px;&quot;&gt;ou&lt;/b&gt;&lt;/font&gt;" style="whiteSpace=wrap;html=1;aspect=fixed;perimeterSpacing=0;rounded=1;fillColor=#e1d5e7;strokeColor=#9673a6;" parent="1" vertex="1">
          <mxGeometry x="669.5" y="280" width="39.5" height="39.5" as="geometry" />
        </mxCell>
        <mxCell id="ljBDnQ2L84ngYzarCwvp-36" value="&lt;font size=&quot;1&quot;&gt;&lt;b style=&quot;font-size: 20px;&quot;&gt;ou&lt;/b&gt;&lt;/font&gt;" style="whiteSpace=wrap;html=1;aspect=fixed;perimeterSpacing=0;rounded=1;fillColor=#e1d5e7;strokeColor=#9673a6;" parent="1" vertex="1">
          <mxGeometry x="579.5" y="280" width="39.5" height="39.5" as="geometry" />
        </mxCell>
        <mxCell id="ljBDnQ2L84ngYzarCwvp-38" value="&lt;font style=&quot;font-size: 10px;&quot;&gt;ou=utilisateurs&lt;/font&gt;" style="text;html=1;strokeColor=none;fillColor=none;align=center;verticalAlign=middle;whiteSpace=wrap;rounded=0;" parent="1" vertex="1">
          <mxGeometry x="183.75" y="319.5" width="150" height="30" as="geometry" />
        </mxCell>
        <mxCell id="ljBDnQ2L84ngYzarCwvp-39" value="&lt;font style=&quot;font-size: 10px;&quot;&gt;ou=groupes&lt;/font&gt;" style="text;html=1;strokeColor=none;fillColor=none;align=center;verticalAlign=middle;whiteSpace=wrap;rounded=0;" parent="1" vertex="1">
          <mxGeometry x="273.75" y="319.5" width="150" height="30" as="geometry" />
        </mxCell>
        <mxCell id="ljBDnQ2L84ngYzarCwvp-40" value="&lt;font style=&quot;font-size: 10px;&quot;&gt;ou=utilisateurs&lt;/font&gt;" style="text;html=1;strokeColor=none;fillColor=none;align=center;verticalAlign=middle;whiteSpace=wrap;rounded=0;" parent="1" vertex="1">
          <mxGeometry x="352.5" y="319.5" width="150" height="30" as="geometry" />
        </mxCell>
        <mxCell id="ljBDnQ2L84ngYzarCwvp-41" value="&lt;font style=&quot;font-size: 10px;&quot;&gt;ou=groupes&lt;/font&gt;" style="text;html=1;strokeColor=none;fillColor=none;align=center;verticalAlign=middle;whiteSpace=wrap;rounded=0;" parent="1" vertex="1">
          <mxGeometry x="442.5" y="319.5" width="150" height="30" as="geometry" />
        </mxCell>
        <mxCell id="ljBDnQ2L84ngYzarCwvp-42" value="&lt;font style=&quot;font-size: 10px;&quot;&gt;ou=utilisateurs&lt;/font&gt;" style="text;html=1;strokeColor=none;fillColor=none;align=center;verticalAlign=middle;whiteSpace=wrap;rounded=0;" parent="1" vertex="1">
          <mxGeometry x="524.25" y="319.5" width="150" height="30" as="geometry" />
        </mxCell>
        <mxCell id="ljBDnQ2L84ngYzarCwvp-43" value="&lt;font style=&quot;font-size: 10px;&quot;&gt;ou=groupes&lt;/font&gt;" style="text;html=1;strokeColor=none;fillColor=none;align=center;verticalAlign=middle;whiteSpace=wrap;rounded=0;" parent="1" vertex="1">
          <mxGeometry x="614.25" y="319.5" width="150" height="30" as="geometry" />
        </mxCell>
        <mxCell id="ljBDnQ2L84ngYzarCwvp-44" value="&lt;font size=&quot;1&quot;&gt;&lt;b&gt;uid&lt;/b&gt;&lt;/font&gt;" style="whiteSpace=wrap;html=1;aspect=fixed;perimeterSpacing=0;rounded=1;fillColor=#f8cecc;strokeColor=#b85450;" parent="1" vertex="1">
          <mxGeometry x="39.5" y="381" width="29.5" height="29.5" as="geometry" />
        </mxCell>
        <mxCell id="ljBDnQ2L84ngYzarCwvp-45" value="&lt;b&gt;&lt;font size=&quot;1&quot;&gt;uid&lt;/font&gt;&lt;/b&gt;" style="whiteSpace=wrap;html=1;aspect=fixed;perimeterSpacing=0;rounded=1;fillColor=#f8cecc;strokeColor=#b85450;" parent="1" vertex="1">
          <mxGeometry x="108.5" y="378.75" width="30" height="30" as="geometry" />
        </mxCell>
        <mxCell id="ljBDnQ2L84ngYzarCwvp-49" value="&lt;font size=&quot;1&quot;&gt;&lt;b&gt;uid&lt;/b&gt;&lt;/font&gt;" style="whiteSpace=wrap;html=1;aspect=fixed;perimeterSpacing=0;rounded=1;fillColor=#f8cecc;strokeColor=#b85450;" parent="1" vertex="1">
          <mxGeometry x="211.75" y="378.75" width="29.5" height="29.5" as="geometry" />
        </mxCell>
        <mxCell id="ljBDnQ2L84ngYzarCwvp-50" value="&lt;b&gt;&lt;font size=&quot;1&quot;&gt;uid&lt;/font&gt;&lt;/b&gt;" style="whiteSpace=wrap;html=1;aspect=fixed;perimeterSpacing=0;rounded=1;fillColor=#f8cecc;strokeColor=#b85450;" parent="1" vertex="1">
          <mxGeometry x="276" y="378.25" width="30" height="30" as="geometry" />
        </mxCell>
        <mxCell id="ljBDnQ2L84ngYzarCwvp-51" value="&lt;font size=&quot;1&quot;&gt;&lt;b&gt;uid&lt;/b&gt;&lt;/font&gt;" style="whiteSpace=wrap;html=1;aspect=fixed;perimeterSpacing=0;rounded=1;fillColor=#f8cecc;strokeColor=#b85450;" parent="1" vertex="1">
          <mxGeometry x="380.5" y="378.25" width="29.5" height="29.5" as="geometry" />
        </mxCell>
        <mxCell id="ljBDnQ2L84ngYzarCwvp-52" value="&lt;b&gt;&lt;font size=&quot;1&quot;&gt;uid&lt;/font&gt;&lt;/b&gt;" style="whiteSpace=wrap;html=1;aspect=fixed;perimeterSpacing=0;rounded=1;fillColor=#f8cecc;strokeColor=#b85450;" parent="1" vertex="1">
          <mxGeometry x="444.75" y="377.75" width="30" height="30" as="geometry" />
        </mxCell>
        <mxCell id="ljBDnQ2L84ngYzarCwvp-53" value="&lt;font size=&quot;1&quot;&gt;&lt;b&gt;uid&lt;/b&gt;&lt;/font&gt;" style="whiteSpace=wrap;html=1;aspect=fixed;perimeterSpacing=0;rounded=1;fillColor=#f8cecc;strokeColor=#b85450;" parent="1" vertex="1">
          <mxGeometry x="552.25" y="377.75" width="29.5" height="29.5" as="geometry" />
        </mxCell>
        <mxCell id="ljBDnQ2L84ngYzarCwvp-54" value="&lt;b&gt;&lt;font size=&quot;1&quot;&gt;uid&lt;/font&gt;&lt;/b&gt;" style="whiteSpace=wrap;html=1;aspect=fixed;perimeterSpacing=0;rounded=1;fillColor=#f8cecc;strokeColor=#b85450;" parent="1" vertex="1">
          <mxGeometry x="616.5" y="377.25" width="30" height="30" as="geometry" />
        </mxCell>
        <mxCell id="ljBDnQ2L84ngYzarCwvp-55" value="&lt;font style=&quot;font-size: 8px;&quot;&gt;uid=ybendhiab&lt;/font&gt;" style="text;html=1;strokeColor=none;fillColor=none;align=center;verticalAlign=middle;whiteSpace=wrap;rounded=0;" parent="1" vertex="1">
          <mxGeometry x="-20.75" y="411" width="150" height="30" as="geometry" />
        </mxCell>
        <mxCell id="ljBDnQ2L84ngYzarCwvp-56" value="..." style="text;html=1;strokeColor=none;fillColor=none;align=center;verticalAlign=middle;whiteSpace=wrap;rounded=0;" parent="1" vertex="1">
          <mxGeometry x="48.5" y="408.75" width="150" height="30" as="geometry" />
        </mxCell>
        <mxCell id="ljBDnQ2L84ngYzarCwvp-57" value="&lt;font style=&quot;font-size: 8px;&quot;&gt;uid=bdessaint&lt;/font&gt;" style="text;html=1;strokeColor=none;fillColor=none;align=center;verticalAlign=middle;whiteSpace=wrap;rounded=0;" parent="1" vertex="1">
          <mxGeometry x="151.5" y="409.5" width="150" height="30" as="geometry" />
        </mxCell>
        <mxCell id="ljBDnQ2L84ngYzarCwvp-58" value="..." style="text;html=1;strokeColor=none;fillColor=none;align=center;verticalAlign=middle;whiteSpace=wrap;rounded=0;" parent="1" vertex="1">
          <mxGeometry x="216" y="408.25" width="150" height="30" as="geometry" />
        </mxCell>
        <mxCell id="ljBDnQ2L84ngYzarCwvp-59" value="&lt;font style=&quot;font-size: 8px;&quot;&gt;uid=jsaada&lt;/font&gt;" style="text;html=1;strokeColor=none;fillColor=none;align=center;verticalAlign=middle;whiteSpace=wrap;rounded=0;" parent="1" vertex="1">
          <mxGeometry x="320.25" y="409.5" width="150" height="30" as="geometry" />
        </mxCell>
        <mxCell id="ljBDnQ2L84ngYzarCwvp-60" value="..." style="text;html=1;strokeColor=none;fillColor=none;align=center;verticalAlign=middle;whiteSpace=wrap;rounded=0;" parent="1" vertex="1">
          <mxGeometry x="384.75" y="407.75" width="150" height="30" as="geometry" />
        </mxCell>
        <mxCell id="ljBDnQ2L84ngYzarCwvp-61" value="&lt;font style=&quot;font-size: 8px;&quot;&gt;uid=clarssonier&lt;/font&gt;" style="text;html=1;strokeColor=none;fillColor=none;align=center;verticalAlign=middle;whiteSpace=wrap;rounded=0;" parent="1" vertex="1">
          <mxGeometry x="492" y="407.25" width="150" height="30" as="geometry" />
        </mxCell>
        <mxCell id="ljBDnQ2L84ngYzarCwvp-62" value="..." style="text;html=1;strokeColor=none;fillColor=none;align=center;verticalAlign=middle;whiteSpace=wrap;rounded=0;" parent="1" vertex="1">
          <mxGeometry x="556.5" y="407.25" width="150" height="30" as="geometry" />
        </mxCell>
        <mxCell id="ljBDnQ2L84ngYzarCwvp-63" value="" style="endArrow=classic;html=1;rounded=0;exitX=0.5;exitY=1;exitDx=0;exitDy=0;" parent="1" source="ljBDnQ2L84ngYzarCwvp-6" edge="1">
          <mxGeometry width="50" height="50" relative="1" as="geometry">
            <mxPoint x="210" y="330" as="sourcePoint" />
            <mxPoint x="60" y="370" as="targetPoint" />
          </mxGeometry>
        </mxCell>
        <mxCell id="ljBDnQ2L84ngYzarCwvp-64" value="" style="endArrow=classic;html=1;rounded=0;" parent="1" edge="1">
          <mxGeometry width="50" height="50" relative="1" as="geometry">
            <mxPoint x="90" y="350" as="sourcePoint" />
            <mxPoint x="120" y="370" as="targetPoint" />
          </mxGeometry>
        </mxCell>
        <mxCell id="ljBDnQ2L84ngYzarCwvp-68" value="" style="endArrow=classic;html=1;rounded=0;exitX=0.5;exitY=1;exitDx=0;exitDy=0;" parent="1" edge="1">
          <mxGeometry width="50" height="50" relative="1" as="geometry">
            <mxPoint x="257.75" y="348.5" as="sourcePoint" />
            <mxPoint x="228.75" y="368.5" as="targetPoint" />
          </mxGeometry>
        </mxCell>
        <mxCell id="ljBDnQ2L84ngYzarCwvp-69" value="" style="endArrow=classic;html=1;rounded=0;" parent="1" edge="1">
          <mxGeometry width="50" height="50" relative="1" as="geometry">
            <mxPoint x="258.75" y="348.5" as="sourcePoint" />
            <mxPoint x="288.75" y="368.5" as="targetPoint" />
          </mxGeometry>
        </mxCell>
        <mxCell id="ljBDnQ2L84ngYzarCwvp-72" value="" style="endArrow=classic;html=1;rounded=0;exitX=0.5;exitY=1;exitDx=0;exitDy=0;" parent="1" edge="1">
          <mxGeometry width="50" height="50" relative="1" as="geometry">
            <mxPoint x="430" y="348.5" as="sourcePoint" />
            <mxPoint x="401" y="368.5" as="targetPoint" />
          </mxGeometry>
        </mxCell>
        <mxCell id="ljBDnQ2L84ngYzarCwvp-73" value="" style="endArrow=classic;html=1;rounded=0;" parent="1" edge="1">
          <mxGeometry width="50" height="50" relative="1" as="geometry">
            <mxPoint x="431" y="348.5" as="sourcePoint" />
            <mxPoint x="461" y="368.5" as="targetPoint" />
          </mxGeometry>
        </mxCell>
        <mxCell id="ljBDnQ2L84ngYzarCwvp-76" value="" style="endArrow=classic;html=1;rounded=0;exitX=0.5;exitY=1;exitDx=0;exitDy=0;" parent="1" edge="1">
          <mxGeometry width="50" height="50" relative="1" as="geometry">
            <mxPoint x="601.75" y="348.5" as="sourcePoint" />
            <mxPoint x="572.75" y="368.5" as="targetPoint" />
          </mxGeometry>
        </mxCell>
        <mxCell id="ljBDnQ2L84ngYzarCwvp-77" value="" style="endArrow=classic;html=1;rounded=0;" parent="1" edge="1">
          <mxGeometry width="50" height="50" relative="1" as="geometry">
            <mxPoint x="602.75" y="348.5" as="sourcePoint" />
            <mxPoint x="632.75" y="368.5" as="targetPoint" />
          </mxGeometry>
        </mxCell>
        <mxCell id="ljBDnQ2L84ngYzarCwvp-80" value="" style="endArrow=classic;html=1;rounded=0;exitX=0.5;exitY=1;exitDx=0;exitDy=0;" parent="1" source="ljBDnQ2L84ngYzarCwvp-16" edge="1">
          <mxGeometry width="50" height="50" relative="1" as="geometry">
            <mxPoint x="70" y="190" as="sourcePoint" />
            <mxPoint x="90" y="270" as="targetPoint" />
          </mxGeometry>
        </mxCell>
        <mxCell id="ljBDnQ2L84ngYzarCwvp-81" value="" style="endArrow=classic;html=1;rounded=0;exitX=0.5;exitY=1;exitDx=0;exitDy=0;" parent="1" source="ljBDnQ2L84ngYzarCwvp-16" edge="1">
          <mxGeometry width="50" height="50" relative="1" as="geometry">
            <mxPoint x="144" y="261" as="sourcePoint" />
            <mxPoint x="180" y="270" as="targetPoint" />
          </mxGeometry>
        </mxCell>
        <mxCell id="ljBDnQ2L84ngYzarCwvp-82" value="" style="endArrow=classic;html=1;rounded=0;exitX=0.5;exitY=1;exitDx=0;exitDy=0;" parent="1" edge="1">
          <mxGeometry width="50" height="50" relative="1" as="geometry">
            <mxPoint x="302.75" y="250.5" as="sourcePoint" />
            <mxPoint x="258.75" y="269.5" as="targetPoint" />
          </mxGeometry>
        </mxCell>
        <mxCell id="ljBDnQ2L84ngYzarCwvp-83" value="" style="endArrow=classic;html=1;rounded=0;exitX=0.5;exitY=1;exitDx=0;exitDy=0;" parent="1" edge="1">
          <mxGeometry width="50" height="50" relative="1" as="geometry">
            <mxPoint x="302.75" y="250.5" as="sourcePoint" />
            <mxPoint x="348.75" y="269.5" as="targetPoint" />
          </mxGeometry>
        </mxCell>
        <mxCell id="ljBDnQ2L84ngYzarCwvp-84" value="" style="endArrow=classic;html=1;rounded=0;exitX=0.5;exitY=1;exitDx=0;exitDy=0;" parent="1" edge="1">
          <mxGeometry width="50" height="50" relative="1" as="geometry">
            <mxPoint x="474" y="251" as="sourcePoint" />
            <mxPoint x="430" y="270" as="targetPoint" />
          </mxGeometry>
        </mxCell>
        <mxCell id="ljBDnQ2L84ngYzarCwvp-85" value="" style="endArrow=classic;html=1;rounded=0;exitX=0.5;exitY=1;exitDx=0;exitDy=0;" parent="1" edge="1">
          <mxGeometry width="50" height="50" relative="1" as="geometry">
            <mxPoint x="474" y="251" as="sourcePoint" />
            <mxPoint x="520" y="270" as="targetPoint" />
          </mxGeometry>
        </mxCell>
        <mxCell id="ljBDnQ2L84ngYzarCwvp-86" value="" style="endArrow=classic;html=1;rounded=0;exitX=0.5;exitY=1;exitDx=0;exitDy=0;" parent="1" edge="1">
          <mxGeometry width="50" height="50" relative="1" as="geometry">
            <mxPoint x="642.75" y="250.5" as="sourcePoint" />
            <mxPoint x="598.75" y="269.5" as="targetPoint" />
          </mxGeometry>
        </mxCell>
        <mxCell id="ljBDnQ2L84ngYzarCwvp-87" value="" style="endArrow=classic;html=1;rounded=0;exitX=0.5;exitY=1;exitDx=0;exitDy=0;" parent="1" edge="1">
          <mxGeometry width="50" height="50" relative="1" as="geometry">
            <mxPoint x="642.75" y="250.5" as="sourcePoint" />
            <mxPoint x="688.75" y="269.5" as="targetPoint" />
          </mxGeometry>
        </mxCell>
        <mxCell id="ljBDnQ2L84ngYzarCwvp-88" value="" style="endArrow=classic;html=1;rounded=0;exitX=0.5;exitY=1;exitDx=0;exitDy=0;" parent="1" edge="1">
          <mxGeometry width="50" height="50" relative="1" as="geometry">
            <mxPoint x="389" y="130" as="sourcePoint" />
            <mxPoint x="310" y="160" as="targetPoint" />
          </mxGeometry>
        </mxCell>
        <mxCell id="ljBDnQ2L84ngYzarCwvp-89" value="" style="endArrow=classic;html=1;rounded=0;exitX=0.5;exitY=1;exitDx=0;exitDy=0;" parent="1" edge="1">
          <mxGeometry width="50" height="50" relative="1" as="geometry">
            <mxPoint x="389" y="130" as="sourcePoint" />
            <mxPoint x="470" y="160" as="targetPoint" />
          </mxGeometry>
        </mxCell>
        <mxCell id="ljBDnQ2L84ngYzarCwvp-90" value="" style="endArrow=classic;html=1;rounded=0;" parent="1" edge="1">
          <mxGeometry width="50" height="50" relative="1" as="geometry">
            <mxPoint x="390" y="130" as="sourcePoint" />
            <mxPoint x="140" y="160" as="targetPoint" />
          </mxGeometry>
        </mxCell>
        <mxCell id="ljBDnQ2L84ngYzarCwvp-91" value="" style="endArrow=classic;html=1;rounded=0;" parent="1" edge="1">
          <mxGeometry width="50" height="50" relative="1" as="geometry">
            <mxPoint x="390" y="130" as="sourcePoint" />
            <mxPoint x="640" y="160" as="targetPoint" />
          </mxGeometry>
        </mxCell>
      </root>
    </mxGraphModel>
  </diagram>
</mxfile>
